<mxfile host="app.diagrams.net" agent="Mozilla/5.0 (Macintosh; Intel Mac OS X 10_15_7) AppleWebKit/605.1.15 (KHTML, like Gecko) Version/18.1.1 Safari/605.1.15" version="24.9.1">
  <diagram id="N46P--Eoy_d9tgk3Qrls" name="Page-1">
    <mxGraphModel dx="1026" dy="647" grid="1" gridSize="10" guides="1" tooltips="1" connect="1" arrows="1" fold="1" page="1" pageScale="1" pageWidth="827" pageHeight="1169" math="0" shadow="0">
      <root>
        <mxCell id="0" />
        <mxCell id="1" parent="0" />
        <mxCell id="Yy8UinuvtfsdmuhCIqNr-40" style="edgeStyle=orthogonalEdgeStyle;rounded=0;orthogonalLoop=1;jettySize=auto;html=1;exitX=1;exitY=0.5;exitDx=0;exitDy=0;entryX=0;entryY=0.5;entryDx=0;entryDy=0;" parent="1" source="Yy8UinuvtfsdmuhCIqNr-1" target="Yy8UinuvtfsdmuhCIqNr-2" edge="1">
          <mxGeometry relative="1" as="geometry" />
        </mxCell>
        <mxCell id="Yy8UinuvtfsdmuhCIqNr-1" value="01_preprocessing/&lt;br&gt;01_download_raw_data.py" style="rounded=1;whiteSpace=wrap;html=1;" parent="1" vertex="1">
          <mxGeometry x="20" y="20" width="155" height="40" as="geometry" />
        </mxCell>
        <mxCell id="Yy8UinuvtfsdmuhCIqNr-41" style="edgeStyle=orthogonalEdgeStyle;rounded=0;orthogonalLoop=1;jettySize=auto;html=1;exitX=1;exitY=0.5;exitDx=0;exitDy=0;entryX=0;entryY=0.5;entryDx=0;entryDy=0;" parent="1" source="Yy8UinuvtfsdmuhCIqNr-2" target="Yy8UinuvtfsdmuhCIqNr-4" edge="1">
          <mxGeometry relative="1" as="geometry" />
        </mxCell>
        <mxCell id="Yy8UinuvtfsdmuhCIqNr-2" value="01_preprocessing/&lt;br&gt;02_download_raw_data_electoral_term_19_20.py" style="rounded=1;whiteSpace=wrap;html=1;" parent="1" vertex="1">
          <mxGeometry x="188.13" y="20" width="301.87" height="40" as="geometry" />
        </mxCell>
        <mxCell id="Yy8UinuvtfsdmuhCIqNr-42" style="edgeStyle=orthogonalEdgeStyle;rounded=0;orthogonalLoop=1;jettySize=auto;html=1;exitX=1;exitY=0.5;exitDx=0;exitDy=0;entryX=0;entryY=0.5;entryDx=0;entryDy=0;" parent="1" source="Yy8UinuvtfsdmuhCIqNr-4" target="Yy8UinuvtfsdmuhCIqNr-5" edge="1">
          <mxGeometry relative="1" as="geometry" />
        </mxCell>
        <mxCell id="Yy8UinuvtfsdmuhCIqNr-4" value="01_preprocessing/&lt;br&gt;03_split_xml.py" style="rounded=1;whiteSpace=wrap;html=1;" parent="1" vertex="1">
          <mxGeometry x="509.09000000000003" y="20" width="122.5" height="40" as="geometry" />
        </mxCell>
        <mxCell id="Yy8UinuvtfsdmuhCIqNr-43" style="edgeStyle=orthogonalEdgeStyle;rounded=0;orthogonalLoop=1;jettySize=auto;html=1;exitX=1;exitY=0.5;exitDx=0;exitDy=0;entryX=0;entryY=0.5;entryDx=0;entryDy=0;" parent="1" source="Yy8UinuvtfsdmuhCIqNr-5" target="Yy8UinuvtfsdmuhCIqNr-9" edge="1">
          <mxGeometry relative="1" as="geometry">
            <Array as="points">
              <mxPoint x="920" y="40" />
              <mxPoint x="920" y="70" />
              <mxPoint x="10" y="70" />
              <mxPoint x="10" y="100" />
            </Array>
          </mxGeometry>
        </mxCell>
        <mxCell id="Yy8UinuvtfsdmuhCIqNr-5" value="01_preprocessing/&lt;br&gt;04_split_xml_electoral_term_1_and_2.py" style="rounded=1;whiteSpace=wrap;html=1;" parent="1" vertex="1">
          <mxGeometry x="646.9" y="20" width="263.1" height="40" as="geometry" />
        </mxCell>
        <mxCell id="Yy8UinuvtfsdmuhCIqNr-44" style="edgeStyle=orthogonalEdgeStyle;rounded=0;orthogonalLoop=1;jettySize=auto;html=1;exitX=1;exitY=0.5;exitDx=0;exitDy=0;entryX=0;entryY=0.5;entryDx=0;entryDy=0;" parent="1" source="Yy8UinuvtfsdmuhCIqNr-9" target="Yy8UinuvtfsdmuhCIqNr-11" edge="1">
          <mxGeometry relative="1" as="geometry" />
        </mxCell>
        <mxCell id="Yy8UinuvtfsdmuhCIqNr-9" value="01_preprocessing/&lt;br&gt;05_split_xml_electoral_term_19_20.py" style="rounded=1;whiteSpace=wrap;html=1;" parent="1" vertex="1">
          <mxGeometry x="20" y="80" width="240" height="40" as="geometry" />
        </mxCell>
        <mxCell id="Yy8UinuvtfsdmuhCIqNr-45" style="edgeStyle=orthogonalEdgeStyle;rounded=0;orthogonalLoop=1;jettySize=auto;html=1;exitX=1;exitY=0.5;exitDx=0;exitDy=0;entryX=0;entryY=0.5;entryDx=0;entryDy=0;" parent="1" source="Yy8UinuvtfsdmuhCIqNr-11" target="Yy8UinuvtfsdmuhCIqNr-13" edge="1">
          <mxGeometry relative="1" as="geometry">
            <mxPoint x="520" y="99.66666666666674" as="targetPoint" />
          </mxGeometry>
        </mxCell>
        <mxCell id="Yy8UinuvtfsdmuhCIqNr-11" value="01_preprocessing/&lt;br&gt;06_extract_mps_from_mp_base_data.py" style="rounded=1;whiteSpace=wrap;html=1;" parent="1" vertex="1">
          <mxGeometry x="280" y="80" width="250" height="40" as="geometry" />
        </mxCell>
        <mxCell id="Yy8UinuvtfsdmuhCIqNr-46" style="edgeStyle=orthogonalEdgeStyle;rounded=0;orthogonalLoop=1;jettySize=auto;html=1;exitX=1;exitY=0.5;exitDx=0;exitDy=0;entryX=0;entryY=0.5;entryDx=0;entryDy=0;" parent="1" source="Yy8UinuvtfsdmuhCIqNr-13" target="Yy8UinuvtfsdmuhCIqNr-15" edge="1">
          <mxGeometry relative="1" as="geometry">
            <Array as="points">
              <mxPoint x="740" y="100" />
              <mxPoint x="740" y="130" />
              <mxPoint x="10" y="130" />
              <mxPoint x="10" y="160" />
            </Array>
          </mxGeometry>
        </mxCell>
        <mxCell id="Yy8UinuvtfsdmuhCIqNr-13" value="01_preprocessing/&lt;br&gt;07_create_electoral_terms.py" style="rounded=1;whiteSpace=wrap;html=1;" parent="1" vertex="1">
          <mxGeometry x="550" y="80" width="176.85" height="40" as="geometry" />
        </mxCell>
        <mxCell id="Yy8UinuvtfsdmuhCIqNr-15" value="02_factions/&lt;br&gt;01_create_factions.py" style="rounded=1;whiteSpace=wrap;html=1;" parent="1" vertex="1">
          <mxGeometry x="20" y="140" width="127.82" height="40" as="geometry" />
        </mxCell>
        <mxCell id="Yy8UinuvtfsdmuhCIqNr-47" style="edgeStyle=orthogonalEdgeStyle;rounded=0;orthogonalLoop=1;jettySize=auto;html=1;exitX=1;exitY=0.5;exitDx=0;exitDy=0;entryX=0;entryY=0.5;entryDx=0;entryDy=0;" parent="1" source="Yy8UinuvtfsdmuhCIqNr-17" target="Yy8UinuvtfsdmuhCIqNr-19" edge="1">
          <mxGeometry relative="1" as="geometry">
            <Array as="points">
              <mxPoint x="371" y="160" />
              <mxPoint x="371" y="190" />
              <mxPoint x="10" y="190" />
              <mxPoint x="10" y="220" />
            </Array>
          </mxGeometry>
        </mxCell>
        <mxCell id="Yy8UinuvtfsdmuhCIqNr-17" value="02_factions/&lt;br&gt;02_add_abbreviations_and_ids.py" style="rounded=1;whiteSpace=wrap;html=1;" parent="1" vertex="1">
          <mxGeometry x="159.99999999999997" y="140" width="191.42" height="40" as="geometry" />
        </mxCell>
        <mxCell id="Yy8UinuvtfsdmuhCIqNr-48" style="edgeStyle=orthogonalEdgeStyle;rounded=0;orthogonalLoop=1;jettySize=auto;html=1;exitX=1;exitY=0.5;exitDx=0;exitDy=0;entryX=0;entryY=0.5;entryDx=0;entryDy=0;" parent="1" source="Yy8UinuvtfsdmuhCIqNr-19" target="Yy8UinuvtfsdmuhCIqNr-21" edge="1">
          <mxGeometry relative="1" as="geometry" />
        </mxCell>
        <mxCell id="Yy8UinuvtfsdmuhCIqNr-19" value="03_politicians/&lt;br&gt;01_add_faction_id_to_mps.py" style="rounded=1;whiteSpace=wrap;html=1;" parent="1" vertex="1">
          <mxGeometry x="19.999999999999943" y="200" width="191.42" height="40" as="geometry" />
        </mxCell>
        <mxCell id="Yy8UinuvtfsdmuhCIqNr-49" style="edgeStyle=orthogonalEdgeStyle;rounded=0;orthogonalLoop=1;jettySize=auto;html=1;exitX=1;exitY=0.5;exitDx=0;exitDy=0;entryX=0;entryY=0.5;entryDx=0;entryDy=0;" parent="1" source="Yy8UinuvtfsdmuhCIqNr-21" target="Yy8UinuvtfsdmuhCIqNr-23" edge="1">
          <mxGeometry relative="1" as="geometry" />
        </mxCell>
        <mxCell id="Yy8UinuvtfsdmuhCIqNr-21" value="03_politicians/&lt;br&gt;02_scrape_mgs.py" style="rounded=1;whiteSpace=wrap;html=1;" parent="1" vertex="1">
          <mxGeometry x="226.25" y="200" width="133.75" height="40" as="geometry" />
        </mxCell>
        <mxCell id="Yy8UinuvtfsdmuhCIqNr-50" style="edgeStyle=orthogonalEdgeStyle;rounded=0;orthogonalLoop=1;jettySize=auto;html=1;exitX=1;exitY=0.5;exitDx=0;exitDy=0;entryX=0;entryY=0.5;entryDx=0;entryDy=0;" parent="1" source="Yy8UinuvtfsdmuhCIqNr-23" target="Yy8UinuvtfsdmuhCIqNr-29" edge="1">
          <mxGeometry relative="1" as="geometry">
            <Array as="points">
              <mxPoint x="540" y="220" />
              <mxPoint x="540" y="250" />
              <mxPoint x="10" y="250" />
              <mxPoint x="10" y="280" />
            </Array>
            <mxPoint x="10" y="280" as="targetPoint" />
          </mxGeometry>
        </mxCell>
        <mxCell id="Yy8UinuvtfsdmuhCIqNr-23" value="03_politicians/&lt;br&gt;03_merge_politicians.py" style="rounded=1;whiteSpace=wrap;html=1;" parent="1" vertex="1">
          <mxGeometry x="377.7" y="200" width="152.3" height="40" as="geometry" />
        </mxCell>
        <mxCell id="Yy8UinuvtfsdmuhCIqNr-52" style="edgeStyle=orthogonalEdgeStyle;rounded=0;orthogonalLoop=1;jettySize=auto;html=1;exitX=1;exitY=0.5;exitDx=0;exitDy=0;" parent="1" source="Yy8UinuvtfsdmuhCIqNr-29" target="Yy8UinuvtfsdmuhCIqNr-31" edge="1">
          <mxGeometry relative="1" as="geometry" />
        </mxCell>
        <mxCell id="Yy8UinuvtfsdmuhCIqNr-29" value="04_speech_content/&lt;br&gt;01_extract_speeches.py" style="rounded=1;whiteSpace=wrap;html=1;fillColor=#f8cecc;strokeColor=#b85450;" parent="1" vertex="1">
          <mxGeometry x="20" y="260" width="150" height="40" as="geometry" />
        </mxCell>
        <mxCell id="Yy8UinuvtfsdmuhCIqNr-53" style="edgeStyle=orthogonalEdgeStyle;rounded=0;orthogonalLoop=1;jettySize=auto;html=1;exitX=1;exitY=0.5;exitDx=0;exitDy=0;" parent="1" source="Yy8UinuvtfsdmuhCIqNr-31" target="Yy8UinuvtfsdmuhCIqNr-33" edge="1">
          <mxGeometry relative="1" as="geometry" />
        </mxCell>
        <mxCell id="Yy8UinuvtfsdmuhCIqNr-31" value="04_speech_content/&lt;br&gt;02_clean_speeches.py" style="rounded=1;whiteSpace=wrap;html=1;" parent="1" vertex="1">
          <mxGeometry x="190.92000000000007" y="260" width="129.57" height="40" as="geometry" />
        </mxCell>
        <mxCell id="Yy8UinuvtfsdmuhCIqNr-54" style="edgeStyle=orthogonalEdgeStyle;rounded=0;orthogonalLoop=1;jettySize=auto;html=1;exitX=1;exitY=0.5;exitDx=0;exitDy=0;entryX=0;entryY=0.5;entryDx=0;entryDy=0;" parent="1" source="Yy8UinuvtfsdmuhCIqNr-33" target="Yy8UinuvtfsdmuhCIqNr-34" edge="1">
          <mxGeometry relative="1" as="geometry">
            <Array as="points">
              <mxPoint x="540" y="280" />
              <mxPoint x="540" y="310" />
              <mxPoint x="10" y="310" />
              <mxPoint x="10" y="340" />
            </Array>
          </mxGeometry>
        </mxCell>
        <mxCell id="Yy8UinuvtfsdmuhCIqNr-33" value="04_speech_content/&lt;br&gt;03_match_names_speeches.py" style="rounded=1;whiteSpace=wrap;html=1;" parent="1" vertex="1">
          <mxGeometry x="340.1" y="260" width="189.9" height="40" as="geometry" />
        </mxCell>
        <mxCell id="Yy8UinuvtfsdmuhCIqNr-55" style="edgeStyle=orthogonalEdgeStyle;rounded=0;orthogonalLoop=1;jettySize=auto;html=1;exitX=1;exitY=0.5;exitDx=0;exitDy=0;entryX=0;entryY=0.5;entryDx=0;entryDy=0;" parent="1" source="Yy8UinuvtfsdmuhCIqNr-34" target="Yy8UinuvtfsdmuhCIqNr-35" edge="1">
          <mxGeometry relative="1" as="geometry">
            <Array as="points">
              <mxPoint x="410" y="340" />
              <mxPoint x="410" y="370" />
              <mxPoint x="10" y="370" />
              <mxPoint x="10" y="400" />
            </Array>
          </mxGeometry>
        </mxCell>
        <mxCell id="Yy8UinuvtfsdmuhCIqNr-34" value="05_electoral_term_19_20/&lt;br&gt;01_extract_speeches_and_contributions_electoral_term_19_20.py" style="rounded=1;whiteSpace=wrap;html=1;fillColor=#f8cecc;strokeColor=#b85450;" parent="1" vertex="1">
          <mxGeometry x="20" y="320" width="380" height="40" as="geometry" />
        </mxCell>
        <mxCell id="Yy8UinuvtfsdmuhCIqNr-56" style="edgeStyle=orthogonalEdgeStyle;rounded=0;orthogonalLoop=1;jettySize=auto;html=1;exitX=1;exitY=0.5;exitDx=0;exitDy=0;" parent="1" source="Yy8UinuvtfsdmuhCIqNr-35" target="Yy8UinuvtfsdmuhCIqNr-36" edge="1">
          <mxGeometry relative="1" as="geometry" />
        </mxCell>
        <mxCell id="Yy8UinuvtfsdmuhCIqNr-35" value="06_contributions/&lt;br&gt;01_extract_contributions.py" style="rounded=1;whiteSpace=wrap;html=1;" parent="1" vertex="1">
          <mxGeometry x="20" y="380" width="160" height="40" as="geometry" />
        </mxCell>
        <mxCell id="Yy8UinuvtfsdmuhCIqNr-57" style="edgeStyle=orthogonalEdgeStyle;rounded=0;orthogonalLoop=1;jettySize=auto;html=1;exitX=1;exitY=0.5;exitDx=0;exitDy=0;" parent="1" source="Yy8UinuvtfsdmuhCIqNr-36" target="Yy8UinuvtfsdmuhCIqNr-37" edge="1">
          <mxGeometry relative="1" as="geometry" />
        </mxCell>
        <mxCell id="Yy8UinuvtfsdmuhCIqNr-36" value="06_contributions/&lt;br&gt;02_clean_contributions_extended.py" style="rounded=1;whiteSpace=wrap;html=1;" parent="1" vertex="1">
          <mxGeometry x="202" y="380" width="211.87" height="40" as="geometry" />
        </mxCell>
        <mxCell id="Yy8UinuvtfsdmuhCIqNr-58" style="edgeStyle=orthogonalEdgeStyle;rounded=0;orthogonalLoop=1;jettySize=auto;html=1;exitX=1;exitY=0.5;exitDx=0;exitDy=0;entryX=0;entryY=0.5;entryDx=0;entryDy=0;" parent="1" source="Yy8UinuvtfsdmuhCIqNr-37" target="Yy8UinuvtfsdmuhCIqNr-38" edge="1">
          <mxGeometry relative="1" as="geometry">
            <Array as="points">
              <mxPoint x="650" y="400" />
              <mxPoint x="650" y="430" />
              <mxPoint x="10" y="430" />
              <mxPoint x="10" y="460" />
            </Array>
          </mxGeometry>
        </mxCell>
        <mxCell id="Yy8UinuvtfsdmuhCIqNr-37" value="06_contributions/&lt;br&gt;03_match_contributions_extend.py" style="rounded=1;whiteSpace=wrap;html=1;" parent="1" vertex="1">
          <mxGeometry x="440" y="380" width="200" height="40" as="geometry" />
        </mxCell>
        <mxCell id="Yy8UinuvtfsdmuhCIqNr-59" style="edgeStyle=orthogonalEdgeStyle;rounded=0;orthogonalLoop=1;jettySize=auto;html=1;exitX=1;exitY=0.5;exitDx=0;exitDy=0;" parent="1" source="Yy8UinuvtfsdmuhCIqNr-38" target="Yy8UinuvtfsdmuhCIqNr-39" edge="1">
          <mxGeometry relative="1" as="geometry" />
        </mxCell>
        <mxCell id="Yy8UinuvtfsdmuhCIqNr-38" value="07_database/&lt;br&gt;01_concat_everything.py" style="rounded=1;whiteSpace=wrap;html=1;fillColor=#f8cecc;strokeColor=#b85450;" parent="1" vertex="1">
          <mxGeometry x="20" y="440" width="160" height="40" as="geometry" />
        </mxCell>
        <mxCell id="Yy8UinuvtfsdmuhCIqNr-39" value="07_database/&lt;br&gt;02_upload_data_to_database.py" style="rounded=1;whiteSpace=wrap;html=1;" parent="1" vertex="1">
          <mxGeometry x="202" y="440" width="190" height="40" as="geometry" />
        </mxCell>
      </root>
    </mxGraphModel>
  </diagram>
</mxfile>
